<svg xmlns="http://www.w3.org/2000/svg" width="546" height="398.595" viewBox="0 0 546 398.595"><defs><style>.a{fill:#065bfa;}.b{fill:#0a51d6;}.c{fill:#fff;}.d{fill:#054bcd;}.e{fill:#032e7d;}.f{fill:#05296b;}.g{fill:#07368d;}.h{fill:#ffc02f;}.i{fill:#0842af;}.j{fill:#043ca5;}</style></defs><g transform="translate(-87 -3188.907)"><g transform="translate(330.527 3502.555)"><path class="a" d="M2121.291-1548.686l14.748-6.963,3.194,3.623-14.748,6.962Z" transform="translate(-2121.291 1555.648)"/></g><g transform="translate(356.803 3257.139)"><path class="b" d="M2157.464-1727.912a3.81,3.81,0,0,1,.458,4.419,9.548,9.548,0,0,1-4.645,4.118,14.732,14.732,0,0,1-7.042,1.4,7.617,7.617,0,0,1-5.313-2.127,3.815,3.815,0,0,1-.465-4.427,9.615,9.615,0,0,1,4.651-4.111,14.819,14.819,0,0,1,7.037-1.406A7.613,7.613,0,0,1,2157.464-1727.912Zm-4.911,6.09a2.866,2.866,0,0,0,2.616-1.235.854.854,0,0,0-.105-.992,1.7,1.7,0,0,0-1.192-.48l-4.971-.294.467-.952a.864.864,0,0,0-.108-.995,1.689,1.689,0,0,0-1.189-.477,2.888,2.888,0,0,0-2.627,1.24l-1.133,2.31a.856.856,0,0,0,.107.992,1.7,1.7,0,0,0,1.191.479l6.945.405" transform="translate(-2139.966 1730.068)"/></g><g transform="translate(344.415 3240.816)"><path class="c" d="M2161.628-1736.57a8.742,8.742,0,0,1,2.166,4.587,8.712,8.712,0,0,1,.07,1.705c-.034.732-.992,1.449-2.136,1.6a2.038,2.038,0,0,1-1.786-.45.809.809,0,0,1-.208-.6,7,7,0,0,0-1.637-4.888c-.058-.071-.117-.139-.177-.208-.086-.1-.135-.149-.183-.2-4.447-4.729-14.881-5.272-23.512-1.2a2.605,2.605,0,0,1-2.845-.114c-.51-.581-.1-1.429.913-1.915l.1-.048c8.3-3.92,17.966-4.376,24.417-1.618a13.387,13.387,0,0,1,4.766,3.287Z" transform="translate(-2131.161 1741.669)"/></g><g transform="translate(370.065 3233.569)"><path class="c" d="M2173.93-1743.784c3.189,3.616.513,9.022-5.953,12.074a20.561,20.561,0,0,1-11.6,1.823,8.742,8.742,0,0,0-2.166-4.587,7.328,7.328,0,0,0,5.119,2.053,14.386,14.386,0,0,0,6.82-1.366,9.345,9.345,0,0,0,4.51-3.983,3.668,3.668,0,0,0-.444-4.259,7.349,7.349,0,0,0-5.119-2.053,14.466,14.466,0,0,0-6.814,1.372,9.4,9.4,0,0,0-4.517,3.978,3.676,3.676,0,0,0,.445,4.259l-.051-.056a13.4,13.4,0,0,0-4.766-3.287c.763-2.576,3.251-5.182,7.052-6.976C2162.91-1747.846,2170.741-1747.4,2173.93-1743.784Z" transform="translate(-2149.391 1746.819)"/></g><g transform="translate(352.667 3254.423)"><path class="c" d="M2162.367-1728.877c3.266,3.7.55,9.243-6.061,12.365l-.917-1.041-.913-1.036a9.559,9.559,0,0,0,4.646-4.118,3.812,3.812,0,0,0-.46-4.419,7.613,7.613,0,0,0-5.319-2.135,14.819,14.819,0,0,0-7.037,1.406,9.621,9.621,0,0,0-4.651,4.111,3.813,3.813,0,0,0,.466,4.427,7.612,7.612,0,0,0,5.312,2.127,14.732,14.732,0,0,0,7.042-1.4l.913,1.036.917,1.041c-6.623,3.126-14.626,2.648-17.892-1.057s-.561-9.237,6.062-12.364S2159.1-1732.587,2162.367-1728.877Z" transform="translate(-2137.026 1731.998)"/></g><g transform="translate(248.584 3188.907)"><path class="b" d="M2266.1-1702.062l21.175-23.561-46.671-52.939L2135.437-1766.4l-58.474,65.1,18.462,20.94a2.49,2.49,0,0,1,.294,2.891,6.3,6.3,0,0,1-3.049,2.693l-2.763,1.066a13.322,13.322,0,0,1-2.709.272,6.641,6.641,0,0,1-1.424-.2c-.475-.111-.964-.2-1.468-.27-.215-.03-.449-.062-.7-.076s-.477-.058-.738-.068c-.492-.041-.992-.052-1.48-.052-.254.016-.493.013-.749.027s-.5.018-.765.044-.511.046-.744.069c-.515.058-1.009.124-1.531.211-.539.086-1.078.208-1.845.393a23.3,23.3,0,0,0-2.641.831c-.272.1-.528.206-.784.31-.275.113-.544.231-1.292.591-.246.117-.49.243-3.309,2.022-.228.17-.446.352-.651.529s-.442.375-.649.57a14.707,14.707,0,0,0-1.173,1.244,10.467,10.467,0,0,0-.842,1.138c-.134.206-.257.405-.37.616s-.225.425-.326.632-.169.415-.249.629a4.33,4.33,0,0,0-.2.645c-.046.217-.093.432-.127.643-.046.234-.059.47-.083.71a10.15,10.15,0,0,0,.089,1.335c.038.221.1.432.151.636.054.169.119.332.262.671a4.5,4.5,0,0,0,.25.535c.1.19.23.369.344.553q.194.259.409.5c.144.164.294.321.455.476a9.571,9.571,0,0,0,2.223,1.538c.287.146.6.283.917.415a14.215,14.215,0,0,0,2.063.642,19.647,19.647,0,0,0,4.854.446c.439-.021.888-.048,1.343-.086a21.722,21.722,0,0,0,2.166-.3c.356-.062.7-.13,1.066-.221.305-.065.605-.135.911-.218.256-.068.523-.141,1.441-.442.371-.114.75-.256,1.751-.658q.424-.175.836-.369c.275-.129.545-.266,1.217-.627.218-.111.429-.229.63-.359.262-.151.518-.307.763-.476.207-.124.4-.266,1.25-.908a14.316,14.316,0,0,0,1.149-.985c.19-.177.375-.362.564-.557s.368-.4.537-.606a10.145,10.145,0,0,0,1.347-2.032,2.142,2.142,0,0,0,.214-.454,5.442,5.442,0,0,0,.328-.861,5.593,5.593,0,0,0,.229-.974,2.888,2.888,0,0,1,.34-1.026,3.072,3.072,0,0,1,.293-.509,6.436,6.436,0,0,1,2.043-1.812,6.506,6.506,0,0,1,.68-.374l.9-.425a10.256,10.256,0,0,1,4.632-.914,4.972,4.972,0,0,1,3.466,1.392l18.462,20.941,13.731-1.59,23.8-2.75a9.717,9.717,0,0,0,3.062-.871,7.278,7.278,0,0,0,2.321-1.66,4.516,4.516,0,0,0,.712-1,3.759,3.759,0,0,0,.331-1.216,2.442,2.442,0,0,0-.63-1.846,4.192,4.192,0,0,0-2-1.171,9.108,9.108,0,0,1-.885-.307,13.3,13.3,0,0,1-1.806-.868,5.627,5.627,0,0,1-.559-.365,8.334,8.334,0,0,1-1.335-1.161c-.137-.155-.263-.314-.5-.615a3.2,3.2,0,0,1-.318-.521,2.7,2.7,0,0,1-.3-.626,2.081,2.081,0,0,1-.251-.66,5.349,5.349,0,0,1-.23-1.709c0-.16.013-.307.091-1.041.034-.176.08-.356.239-.909a5.164,5.164,0,0,1,.238-.66c.1-.224.2-.449.322-.673a6.1,6.1,0,0,1,.392-.7,4.926,4.926,0,0,1,.444-.641,9.24,9.24,0,0,1,.6-.763c.15-.167.285-.338.5-.556a15.039,15.039,0,0,1,1.42-1.288c.245-.2.507-.408.886-.674.234-.165.469-.328.714-.478.217-.146.44-.289.668-.422.526-.311,1.065-.606,1.871-.989.333-.157.684-.314,1.157-.494.262-.114.546-.221,2.7-.9a6.874,6.874,0,0,1,.793-.208,21.169,21.169,0,0,1,2.116-.406,8.751,8.751,0,0,1,.95-.121c.266-.038.538-.052.809-.065.305-.03.622-.046,1.565-.049a14.663,14.663,0,0,1,1.774.063c.287.022.575.045.836.09.3.035.583.087,2.564.547a10.05,10.05,0,0,1,1.432.533,9.2,9.2,0,0,1,1.259.643,6.777,6.777,0,0,1,.591.383,7.311,7.311,0,0,1,1.307,1.147c.14.158.266.318.487.6a2.58,2.58,0,0,1,.318.521,2.636,2.636,0,0,1,.284.554,2.839,2.839,0,0,1,.249.66,5.038,5.038,0,0,1,.248,1.781,3.1,3.1,0,0,1-.049.66,2.906,2.906,0,0,1-.064.481c-.03.145-.064.3-.109.449a7.255,7.255,0,0,1-.741,1.842c-.119.224-.242.44-.381.657s-.287.427-.7.958c-.141.18-.286.354-.583.681-.218.235-.442.464-.709.715-.213.206-.463.421-.894.774-.262.221-.542.442-.843.654-.205.142-.418.294-.629.429-.44.289-.881.557-1.349.813-.245.134-.484.256-.718.384a5.234,5.234,0,0,0-3.3,4.664,2.688,2.688,0,0,0,.152.44,2.733,2.733,0,0,0,.425.632,3.317,3.317,0,0,0,.753.615,5.7,5.7,0,0,0,2.645.764,8.06,8.06,0,0,0,1.6-.041l28.938-3.347,16.706-1.933,25.123-27.952a4.315,4.315,0,0,0,.895-1.56,4.033,4.033,0,0,0,.087-.509,2.1,2.1,0,0,0,0-.45,2.445,2.445,0,0,0-.611-1.354,3.847,3.847,0,0,0-.871-.7c-.176-.093-.353-.186-.58-.283a10.228,10.228,0,0,0-1.051-.315,7.553,7.553,0,0,0-1.43-.21,9.9,9.9,0,0,0-4.57.9,24.511,24.511,0,0,1-3.147,1.133c-.39.114-.778.208-1.161.293a19.37,19.37,0,0,1-2.25.417c-.277.043-.549.074-1.11.136-.305.028-.62.045-.91.058-.332.016-.648.032-.969.027s-.654-.01-.971-.011c-.344-.014-.687-.047-1.141-.079-.372-.045-.726-.09-1.1-.153a9.759,9.759,0,0,1-1.207-.242c-.2-.053-.409-.107-.925-.245-.287-.093-.579-.193-.868-.305a10.614,10.614,0,0,1-1.828-.912,5.17,5.17,0,0,1-.718-.474c-.2-.153-.4-.307-.573-.471a6.191,6.191,0,0,1-.573-.577,6.508,6.508,0,0,1-.844-1.191,1.752,1.752,0,0,1-.2-.4,4.859,4.859,0,0,1-.262-.671c-.042-.174-.1-.343-.181-.8a3.422,3.422,0,0,1-.062-.677,7.251,7.251,0,0,1,.082-1.337c.035-.176.07-.352.115-.532.058-.221.125-.43.194-.639a12.516,12.516,0,0,1,1.59-2.792c.107-.146.24-.3.521-.625.156-.18.319-.354.654-.689a14.746,14.746,0,0,1,1.853-1.545c-.393.284-.77.584-1.13.894.359-.308.733-.6,1.135-.888.256-.191.5-.36.774-.533.257-.175.525-.336.8-.5.261-.151.534-.305.973-.54a16.856,16.856,0,0,1,2.094-.953c.36-.142.739-.274,1.151-.427.283-.09.566-.18.844-.258.181-.06.371-.115.564-.17.059-.012.191-.045.436-.108.262-.079.528-.134.8-.188.309-.078.6-.137.91-.183s.627-.111.938-.152c.349-.051.709-.089,1.054-.127.366-.032.705-.059,1.054-.074s.682-.03,1.016-.028.671.01,1,.023a16.618,16.618,0,0,1,1.89.177c.3.042.6.094.892.153.266.051.532.1.99.229.232.068.464.134.685.207.271.093.526.185.8.277a5.149,5.149,0,0,1,.718.314c.244.115.47.229.691.354.166.1.325.19,1.115.728.149.115.3.236.523.433a5.662,5.662,0,0,1,.545.546,5.87,5.87,0,0,1,.8,1.124,4.481,4.481,0,0,1,.256.487,8.34,8.34,0,0,1,.326.924,4.94,4.94,0,0,1,.132.67,5.953,5.953,0,0,1,.048,1.055,2.54,2.54,0,0,0,.639,1.829,4.956,4.956,0,0,0,2.586,1.328A9.136,9.136,0,0,0,2266.1-1702.062Zm-79.688,4.5c-6.623,3.126-14.626,2.648-17.892-1.057s-.561-9.237,6.062-12.364,14.62-2.655,17.892,1.057.55,9.241-6.061,12.364m16.7-21.231a20.561,20.561,0,0,1-11.6,1.823,8.716,8.716,0,0,1,.07,1.705c-.034.732-.992,1.449-2.136,1.6a2.034,2.034,0,0,1-1.786-.45.8.8,0,0,1-.208-.6,7,7,0,0,0-1.637-4.888c-.064-.066-.128-.134-.188-.2s-.117-.137-.171-.206c-4.447-4.73-14.881-5.274-23.579-1.168a2.551,2.551,0,0,1-2.787-.158c-.5-.567-.089-1.417,1.023-1.95,8.306-3.92,17.968-4.375,24.418-1.617.763-2.578,3.251-5.184,7.051-6.978,6.468-3.053,14.3-2.609,17.488,1.009s.513,9.021-5.953,12.074" transform="translate(-2063.053 1778.561)"/></g><g transform="translate(373.964 3236.288)"><path class="b" d="M2169.529-1738.557a9.345,9.345,0,0,1-4.51,3.983,14.369,14.369,0,0,1-6.82,1.366,7.328,7.328,0,0,1-5.119-2.053,3.676,3.676,0,0,1-.445-4.259,9.4,9.4,0,0,1,4.517-3.978,14.469,14.469,0,0,1,6.814-1.372,7.349,7.349,0,0,1,5.119,2.053A3.671,3.671,0,0,1,2169.529-1738.557Z" transform="translate(-2152.162 1744.887)"/></g><g transform="translate(361.04 3259.953)"><path class="c" d="M2153.838-1724.864a.856.856,0,0,1,.107.992,2.87,2.87,0,0,1-2.617,1.235l-6.945-.405a1.7,1.7,0,0,1-1.191-.479.856.856,0,0,1-.107-.992l1.133-2.31a2.888,2.888,0,0,1,2.627-1.24,1.689,1.689,0,0,1,1.189.477.864.864,0,0,1,.108.995l-.467.952,4.973.294A1.7,1.7,0,0,1,2153.838-1724.864Z" transform="translate(-2142.977 1728.068)"/></g><g transform="translate(514.36 3271.548)"><path class="a" d="M2257.4-1718.818a.444.444,0,0,0,.043.045l8.025,9.1c.02.027.039.052.062.077a.847.847,0,0,0,.071.072l.826.937a18.161,18.161,0,0,1-6.761.95c-2.761-.163-5.15-1.05-6.546-2.634a4.707,4.707,0,0,1-.58-5.448,10.7,10.7,0,0,1,3.974-4.111l.84.953A.583.583,0,0,0,2257.4-1718.818Z" transform="translate(-2251.943 1719.827)"/></g><g transform="translate(509.256 3280.546)"><path class="c" d="M2288.641-1713.432l.913,1.034.919,1.042-17.176,8.108-23.152,10.93-.919-1.041-.912-1.036,23.152-10.93Z" transform="translate(-2248.315 1713.432)"/></g><g transform="translate(566.176 3282.666)"><path class="d" d="M2347.265-1711.926l8.328,32.294-58.5,65.087-8.329-32.294Z" transform="translate(-2288.769 1711.926)"/></g><g transform="translate(410.289 3229.728)"><path class="a" d="M2178.1-1708.973c.037.186.092.355.166.619a3.974,3.974,0,0,0,.229.581,1.8,1.8,0,0,0,.2.4,6.636,6.636,0,0,0,.845,1.191,6.191,6.191,0,0,0,.573.577,7.825,7.825,0,0,0,.8.628,2.615,2.615,0,0,0,.485.318,10.51,10.51,0,0,0,1.828.912c.289.113.581.212,1.183.4.2.048.405.1.869.217.31.066.621.131.947.18.371.063.726.108,1.213.16.339.025.682.058,1.026.072.316,0,.643.014.971.01s.637-.009.969-.025c.289-.013.6-.028,1.2-.089.273-.031.544-.062.822-.105a19.313,19.313,0,0,0,2.25-.417c.383-.084.771-.179,1.161-.293a24.691,24.691,0,0,0,3.147-1.131,9.884,9.884,0,0,1,4.57-.9,7.763,7.763,0,0,1,1.828.3,4.589,4.589,0,0,1,.686.241,4.55,4.55,0,0,1,.668.347,3.239,3.239,0,0,1,.75.618,2.445,2.445,0,0,1,.611,1.354,2.1,2.1,0,0,1,0,.45,1.421,1.421,0,0,1-.087.509,3.859,3.859,0,0,1-.934,1.676l-25.045,27.881,19.243,21.826a4.96,4.96,0,0,0,3.465,1.393,8.933,8.933,0,0,0,2.3-.16,10.01,10.01,0,0,0,2.317-.767l.9-.426a8.5,8.5,0,0,0,1.856-1.2,5.2,5.2,0,0,0,1.165-1.468,2.736,2.736,0,0,0,.214-.526,2.366,2.366,0,0,0,.126-.518,7.962,7.962,0,0,1,.67-2.084,9.527,9.527,0,0,1,.585-1.071c.107-.146.2-.289.308-.436a13.606,13.606,0,0,1,2.587-2.7c.169-.149.352-.28,1.122-.839.2-.148.412-.283.614-.412.234-.146.452-.274.674-.415.239-.141.508-.284.768-.417.262-.149.535-.287.991-.5.29-.138.574-.263.869-.374.26-.115.55-.235.834-.342.266-.09.516-.182.795-.279.244-.08.5-.165,1.534-.459.266-.073.545-.134.827-.205.262-.062.517-.111.772-.162a23.684,23.684,0,0,1,2.448-.352c.317-.034.649-.051.965-.067a26.445,26.445,0,0,1,2.805.053c.289.024.577.046.864.087a17.932,17.932,0,0,1,2.43.522c.26.08.5.159.736.243a3.911,3.911,0,0,1,.7.279,5.555,5.555,0,0,1,.734.333,5.659,5.659,0,0,1,.553.3,8.074,8.074,0,0,1,1.12.77,3,3,0,0,1,.474.431,6.6,6.6,0,0,1,.477.488,5.552,5.552,0,0,1,.736,1.048,2.706,2.706,0,0,1,.3.585,2.552,2.552,0,0,1,.222.611,6.309,6.309,0,0,1-.435,4.621,8.628,8.628,0,0,1-1.089,1.839c-.135.187-.274.369-.432.549a11.565,11.565,0,0,1-1.106,1.175,6.031,6.031,0,0,1-.615.537,4.734,4.734,0,0,1-.636.531,17.522,17.522,0,0,1-2.954,1.871c-.325.173-.657.338-.992.5q-.84.391-1.712.711c-.322.117-.624.224-1.057.357a20.361,20.361,0,0,1-2.01.543,21.937,21.937,0,0,1-7.978.411c-.488-.07-.981-.165-1.462-.283a7.387,7.387,0,0,0-1.413-.188,9.706,9.706,0,0,0-1.531.051c-.26.027-.522.07-.777.12a12.616,12.616,0,0,0-1.528.431c-.245.1-.49.2-.723.305l-.913.432a6.332,6.332,0,0,0-3.06,2.7,2.754,2.754,0,0,0-.307,1.135,2,2,0,0,0,.066.737,2.479,2.479,0,0,0,.546,1.013l17.681,20.056,42.7-4.958a8.392,8.392,0,0,1,1.6-.031,6.511,6.511,0,0,1,.93.115c.067.014.135.028.2.043.091.021.19.035.277.061-.073-.02-.153-.031-.229-.048l.111.03c.033.009.073.014.107.024a5.835,5.835,0,0,1,1.161.476c.017.01.031.021.048.031a3.327,3.327,0,0,1,.336.218,1.892,1.892,0,0,1,.243.211c.025.024.056.045.08.069l.1.127c.1.111.21.253.359.447a1.685,1.685,0,0,1,.16.335c.008.02.015.04.022.058s.013.032.019.051a2.513,2.513,0,0,1,.112.485,1.434,1.434,0,0,1,0,.2,2.781,2.781,0,0,1-.012.3c-.023.186-.042.338-.062.473s-.032.292-.055.479a3.054,3.054,0,0,1-.256.7,4.942,4.942,0,0,1-.691.988c-.035.045-.077.087-.115.132a3.01,3.01,0,0,1-.358.347,5.161,5.161,0,0,1-.514.419c-.134.1-.277.194-.519.341-.082.052-.155.107-.24.156-.1.058-.211.113-.318.167l-.238.134a20.754,20.754,0,0,0-3.063,1.888,16.419,16.419,0,0,0-1.86,1.628c-.094.1-.188.193-.279.287s-.176.189-.258.284c-.157.2-.319.39-.47.592-.091.118-.177.239-.264.36-.053.073-.105.148-.162.229-.165.25-.32.5-.46.76s-.269.518-.379.775c-.055.121-.094.243-.141.366a9.616,9.616,0,0,0-.342,1.179c-.038.177-.058.364-.094.589l-.006.066c-.01.189-.008.377-.025.56a4.614,4.614,0,0,0,.032.682,4.234,4.234,0,0,0,.1.608,5.549,5.549,0,0,0,.151.566c.072.2.153.4.24.592l0,.006a4.456,4.456,0,0,0,.281.532c.083.135.162.26.245.387.031.046.059.093.094.142.124.158.249.315.377.463l.007.009c.084.1.17.188.262.281l.107.108c.226.221.369.346.475.433.034.025.066.052.1.077l.025.02a2.473,2.473,0,0,0,.217.169c.074.053.15.1.225.153a4.353,4.353,0,0,0,.567.374c.053.031.105.065.16.094.155.1.343.191.519.284.31.155.636.309.972.442.195.076.4.148.6.212.3.113.619.2.951.293.29.072.584.132.875.191l.326.063a19.833,19.833,0,0,0,4.131.281c2.222-.2,3.122-.31,3.669-.4.159-.031.32-.059.474-.093l.262-.056.135-.03.249-.062c.045-.013.089-.022.138-.037.311-.076.611-.148.912-.236.149-.043.3-.087.445-.132s.294-.093.445-.146c.114-.031.228-.067.342-.107s.231-.084.348-.129c.234-.075.467-.169.7-.26.217-.094.45-.187.678-.286l.011-.006c.4-.182.788-.363,1.18-.556l.65-.335c.212-.117.424-.235.63-.359.557-.336,1.088-.684,1.582-1.036.333-.246.5-.374.659-.5s.319-.264.481-.4.3-.284.463-.422c.066-.056.127-.115.187-.173.126-.128.307-.319.646-.688.062-.061.118-.121.175-.183l.067-.079c.048-.055.094-.111.138-.166a2.093,2.093,0,0,0,.189-.221c.058-.076.111-.155.165-.236l.007-.011c.082-.113.162-.228.241-.342.125-.186.267-.409.449-.711.04-.067.078-.134.114-.2a9.06,9.06,0,0,0,.48-1.017c.074-.189.131-.379.191-.568.034-.113.068-.229.1-.36a4.311,4.311,0,0,0,.092-.432c.01-.041.013-.082.021-.121a7.916,7.916,0,0,0,.089-1.15v-.027c0-.068,0-.128-.006-.181-.008-.1-.027-.241-.059-.453-.087-.5-.136-.719-.175-.853-.012-.041-.025-.083-.038-.122a4.619,4.619,0,0,0-.224-.592,3.307,3.307,0,0,0-.294-.567c-.024-.051-.052-.1-.08-.146-.072-.115-.193-.283-.455-.629a5.26,5.26,0,0,0-.542-.607l-.1-.105c-.044-.041-.081-.077-.132-.128l-.032-.034-.09-.086c-.044-.038-.1-.087-.187-.151l-.065-.048a11.618,11.618,0,0,0-2.006-1.247c-.12-.055-.24-.108-.364-.16l-.01,0c-.2-.086-.407-.167-.619-.245s-.431-.151-.657-.221a4.219,4.219,0,0,1-2.039-1.185,2.492,2.492,0,0,1-.574-1.092,2.387,2.387,0,0,1-.062-.492,2.479,2.479,0,0,1,.009-.255l.061-.629a3.021,3.021,0,0,1,.323-1.062,2.406,2.406,0,0,1,.308-.526l.007-.009c.072-.1.15-.2.233-.3.021-.024.046-.046.066-.072.056-.063.113-.126.172-.19s.094-.1.139-.143v0c.082-.082.166-.162.255-.242a7.067,7.067,0,0,1,1.165-.823l.031-.017c.211-.124.44-.242.666-.348l0,0c.176-.083.362-.162.56-.239.073-.03.145-.056.219-.083.129-.046.269-.093.417-.139.05-.015.1-.035.15-.051.108-.031.2-.058.293-.08.055-.015.114-.03.176-.045l.041-.01.041-.009c.112-.027.215-.049.316-.07.131-.027.238-.046.339-.063.062-.011.127-.022.191-.031.1-.016.19-.028.28-.041l28.593-3.3,11.925-1.38,58.495-65.089-46.669-52.937-105.161,12.155-19.49,21.7-1.75,1.912a7.314,7.314,0,0,1-2.286,1.626,9.094,9.094,0,0,1-5.956.7l-.553-.145a4.236,4.236,0,0,1-2.115-1.282,2.452,2.452,0,0,1-.557-1.73,6.1,6.1,0,0,0-.1-1.306,4.065,4.065,0,0,0-.227-.847,3.867,3.867,0,0,0-.184-.5,4.706,4.706,0,0,0-.256-.487,5.908,5.908,0,0,0-.8-1.124,6.144,6.144,0,0,0-.616-.609,11.46,11.46,0,0,0-1.086-.8c-.155-.1-.315-.2-.48-.294-.221-.125-.447-.239-.691-.354a5.094,5.094,0,0,0-.719-.314c-.27-.093-.525-.184-.8-.277-.221-.073-.453-.139-.891-.26-.254-.073-.521-.125-.785-.176-.289-.059-.588-.111-.892-.153-.6-.089-1.247-.145-1.89-.177-.326-.013-.666-.021-1-.023s-.666.014-1.014.028-.689.042-1.055.074c-.345.038-.705.076-1.054.127-.311.041-.627.093-.938.152s-.6.105-.912.182c-.266.056-.532.111-.993.232-.279.078-.545.151-.8.236-.279.078-.561.167-.9.283-.356.13-.735.26-1.536.584-.567.238-1.117.5-1.818.85-.273.156-.546.311-.807.461-.279.166-.546.328-.8.5-.273.173-.518.342-.774.533a17.879,17.879,0,0,0-2.026,1.707c-.168.167-.331.342-.649.7-.118.153-.252.305-1.317,1.85a8.366,8.366,0,0,0-.632,1.393c-.069.208-.137.418-.194.639a10.93,10.93,0,0,0-.2,1.418,2.1,2.1,0,0,0,0,.45A4.707,4.707,0,0,0,2178.1-1708.973Zm96.311,84.859a4.51,4.51,0,0,1,1.138.47,5.252,5.252,0,0,0-1.138-.47m-6.841-61.133a2.165,2.165,0,0,1,1.033-.92,3.347,3.347,0,0,1,1.583-.315,1.728,1.728,0,0,1,1.194.479l1.9,2.151c.968,1.1,2.244,2.546,3.667,4.159l23.153-10.93,17.175-8.107-7.207-8.177q-.517-.584-.965-1.094l-9.188,9.391,1.328,1.506a.865.865,0,0,1,.1.993,2.194,2.194,0,0,1-1.044.926q-.72.34-1.458.63c-.49.194-.986.373-1.484.535-.747.242-1.5.449-2.256.619a24.5,24.5,0,0,1-5.216.612,17.365,17.365,0,0,1-7.159-1.342,11.248,11.248,0,0,1-1.053-.541,9.318,9.318,0,0,1-1.383-.978,8.036,8.036,0,0,1-.778-.763,6.59,6.59,0,0,1-1.1-1.705,6.376,6.376,0,0,1-.087-4.753c.056-.163.119-.327.187-.49a10.616,10.616,0,0,1,1.442-2.41c.122-.157.252-.314.385-.47a16.757,16.757,0,0,1,3.551-3.052q.3-.2.624-.393.637-.386,1.331-.743c.23-.118.467-.235.706-.347a3.14,3.14,0,0,1,.381-.152,3.322,3.322,0,0,1,1.2-.163,2.253,2.253,0,0,1,.7.148,1.269,1.269,0,0,1,.493.331c.421.476.864.979,1.328,1.505l13.484-2.007,2.358-.352h0a1.088,1.088,0,0,1,.084-.245,2.179,2.179,0,0,1,1.044-.926,3.383,3.383,0,0,1,1.583-.315,1.729,1.729,0,0,1,1.194.478l.891,1.01,2.474,2.807c1.877,2.129,4.4,4.991,7.208,8.175l4.118-1.944a3.362,3.362,0,0,1,1.583-.314,1.726,1.726,0,0,1,1.188.471.866.866,0,0,1,.1.993,2.186,2.186,0,0,1-1.044.926l-4.118,1.945c4.3,4.883,7.941,9.009,9.6,10.895l.967,1.1a.865.865,0,0,1,.1.993,2.193,2.193,0,0,1-1.05.919,3.335,3.335,0,0,1-1.577.321,2.3,2.3,0,0,1-.456-.071l-9.379,9.585,1.332,1.511a.866.866,0,0,1,.1.993,2.178,2.178,0,0,1-1.044.926c-7.687,3.62-16.981,3.072-20.786-1.227-3.788-4.314-.639-10.737,7.042-14.363a3.362,3.362,0,0,1,1.583-.314,1.723,1.723,0,0,1,1.193.479c.419.474.864.979,1.327,1.5l15.437-2.3c-1.928-2.185-4.823-5.472-8.109-9.2l-17.174,8.108-23.152,10.93c3.144,3.567,5.442,6.174,5.564,6.311a.866.866,0,0,1,.1.994,2.188,2.188,0,0,1-1.044.926,3.34,3.34,0,0,1-1.572.309,1.731,1.731,0,0,1-1.194-.478c-.144-.165-2.9-3.287-6.481-7.352s-6.332-7.183-6.477-7.346a.865.865,0,0,1-.1-.993m6.359,61.024c-.076-.014-.152-.031-.232-.044l.013,0c.16.024.313.062.467.1l-.048-.013C2274.064-1624.194,2274-1624.21,2273.93-1624.224Zm21.273,14.87c.043-.115.084-.232.125-.353C2295.289-1609.589,2295.248-1609.471,2295.2-1609.354Zm-7.079-15.11c.042-.044.086-.086.131-.128l-.051.042v0C2288.175-1624.52,2288.151-1624.492,2288.124-1624.464Z" transform="translate(-2177.978 1749.549)"/></g><g transform="translate(538.811 3266.321)"><path class="c" d="M2272.033-1723.538a1.728,1.728,0,0,1,1.193.478l.891,1.01a2.052,2.052,0,0,0-1.827-.445l-2.97.442a1.088,1.088,0,0,1,.084-.245,2.182,2.182,0,0,1,1.046-.926A3.361,3.361,0,0,1,2272.033-1723.538Z" transform="translate(-2269.32 1723.542)"/></g><g transform="translate(525.024 3270.615)"><path class="a" d="M2259.522-1718.6l12.666-1.887-7.532,7.711Z" transform="translate(-2259.522 1720.49)"/></g><g transform="translate(553.289 3276.532)"><path class="c" d="M2286.6-1714.815a2.186,2.186,0,0,1-1.044.926l-4.118,1.945-.918-1.041-.912-1.036,4.118-1.944a3.362,3.362,0,0,1,1.583-.314,1.726,1.726,0,0,1,1.188.471A.866.866,0,0,1,2286.6-1714.815Z" transform="translate(-2279.61 1716.285)"/></g><g transform="translate(535.474 3295.496)"><path class="a" d="M2280.54-1692.571a.8.8,0,0,0,.069.072l.825.934a18.091,18.091,0,0,1-6.757.956c-2.765-.169-5.154-1.055-6.545-2.633a4.7,4.7,0,0,1-.579-5.449,10.706,10.706,0,0,1,3.97-4.115l.843.957c.014.018.029.038.046.056s.028.03.043.045l8.023,9.1A.755.755,0,0,0,2280.54-1692.571Z" transform="translate(-2266.948 1702.807)"/></g><g transform="translate(541.409 3267.814)"><path class="c" d="M2283.959-1710.463l.918,1.041,9.6,10.895a2.081,2.081,0,0,0-1.832-.452l-3.371.5-8.107-9.2-.919-1.042-.913-1.034-7.207-8.177-.965-1.094,2.015-2.059a.984.984,0,0,0,.183-1.4l2.474,2.807,7.208,8.175Z" transform="translate(-2271.167 1722.481)"/></g><g transform="translate(562.712 3291.767)"><path class="c" d="M2289.39-1703.366a2.193,2.193,0,0,1-1.05.919,3.335,3.335,0,0,1-1.577.321,2.406,2.406,0,0,1-.456-.071l1.824-1.864a.983.983,0,0,0,.188-1.4l.967,1.1A.865.865,0,0,1,2289.39-1703.366Z" transform="translate(-2286.307 1705.457)"/></g><g transform="translate(499.772 3292.79)"><path class="c" d="M2258.453-1689.549a.864.864,0,0,1,.1.994,2.181,2.181,0,0,1-1.044.926,3.336,3.336,0,0,1-1.571.309,1.729,1.729,0,0,1-1.193-.478l-6.482-7.352-6.477-7.346a.865.865,0,0,1-.1-.993,2.177,2.177,0,0,1,1.033-.922,3.366,3.366,0,0,1,1.583-.314,1.734,1.734,0,0,1,1.195.479l1.9,2.151,3.667,4.159.912,1.036.918,1.041Z" transform="translate(-2241.576 1704.731)"/></g><g transform="translate(544.084 3291.282)"><path class="c" d="M2291.7-1702.057l-9.379,9.585-2.062-2.339,7.536-7.7-12.666,1.885-2.057-2.333,15.437-2.3,3.371-.5a2.081,2.081,0,0,1,1.832.452.983.983,0,0,1-.188,1.4Z" transform="translate(-2273.068 1705.802)"/></g><g transform="translate(546.142 3294.569)"><path class="a" d="M2287.2-1703.466l-7.536,7.7-5.13-5.82Z" transform="translate(-2274.53 1703.466)"/></g><g transform="translate(531.335 3292.134)"><path class="c" d="M2287.441-1690.214a2.178,2.178,0,0,1-1.044.926c-7.687,3.62-16.981,3.072-20.786-1.227-3.788-4.314-.639-10.737,7.042-14.363a3.362,3.362,0,0,1,1.583-.314,1.723,1.723,0,0,1,1.193.479l1.327,1.5,2.057,2.333,5.13,5.82,2.062,2.339,1.332,1.511A.866.866,0,0,1,2287.441-1690.214Zm-11.568.577a18.091,18.091,0,0,0,6.757-.956l-.824-.934-.131-.149-8.023-9.1-.09-.1-.843-.957a10.706,10.706,0,0,0-3.969,4.115,4.694,4.694,0,0,0,.58,5.449c1.39,1.577,3.78,2.464,6.544,2.633" transform="translate(-2264.007 1705.197)"/></g><g transform="translate(98.838 3343.423)"><path class="e" d="M2003.3-1615.806l8.328,32.294-46.669-52.938-8.328-32.294Z" transform="translate(-1956.627 1668.745)"/></g><g transform="translate(198.597 3325.395)"><path class="c" d="M2046.173-1675.3a.854.854,0,0,1,.1.989,2.89,2.89,0,0,1-2.627,1.241l-14.716-.87a1.723,1.723,0,0,1-1.193-.478.865.865,0,0,1-.1-.993l2.395-4.9a2.887,2.887,0,0,1,2.627-1.24,1.7,1.7,0,0,1,1.19.479.856.856,0,0,1,.107.993l-1.74,3.55,12.77.754A1.7,1.7,0,0,1,2046.173-1675.3Z" transform="translate(-2027.527 1681.558)"/></g><g transform="translate(98.838 3266.168)"><path class="a" d="M2173.8-1639.567c1.41,4.118-2.045,8.93-8.01,11.737a24.052,24.052,0,0,1-3.557,1.337,27.412,27.412,0,0,1-3.083.7c-5.524.889-10.587-.255-13.191-2.883a6.988,6.988,0,0,1-1.455-2.226,6.132,6.132,0,0,1-.357-2.464,2.214,2.214,0,0,0-.5-1.6,4.079,4.079,0,0,0-1.973-1.187,8.522,8.522,0,0,0-5.594.646,6.8,6.8,0,0,0-2.169,1.563l-25.442,28.323-42.693,4.947c-2.237.259-4.1-.3-5.018-1.346a2.38,2.38,0,0,1-.618-1.487l.052-1a3.517,3.517,0,0,1,.325-1.027,5.13,5.13,0,0,1,1.159-1.474,8.733,8.733,0,0,1,1.833-1.21,17.757,17.757,0,0,0,5.213-3.83,9.244,9.244,0,0,0,.65-.766c2.371-3.036,2.665-6.415.4-8.981-2.242-2.295-5.5-3.368-9.2-3.461a23.837,23.837,0,0,0-8.734,1.428c-.356.134-.707.273-1.057.411q-.486.2-.985.439c-1.337.684-1.632.85-1.922,1.022-.194.118-.39.236-.578.362s-.374.238-.542.37c-.188.125-.362.25-.535.377a14.95,14.95,0,0,0-2.2,1.992c-.134.134-.246.274-.368.421a7.618,7.618,0,0,0-.628.826c-.113.142-.2.279-.3.432a10.768,10.768,0,0,0-.863,1.759,6.193,6.193,0,0,0-.228.8,4.485,4.485,0,0,0-.131.66,5.609,5.609,0,0,0,.039,1.829,1.667,1.667,0,0,0,.074.407,2.456,2.456,0,0,0,.108.39,4.225,4.225,0,0,0,.235.588,5.943,5.943,0,0,0,1.019,1.586,10.532,10.532,0,0,0,1,.94,4.244,4.244,0,0,0,.552.392,6.807,6.807,0,0,0,.617.4,12.583,12.583,0,0,0,2.454,1.05,4.3,4.3,0,0,1,1.934,1.088,2.518,2.518,0,0,1,.721,1.942l-.059.612a2.872,2.872,0,0,1-.319,1.068,7.219,7.219,0,0,1-4.5,3.211,9.849,9.849,0,0,1-1.594.319l-40.493,4.687-46.67-52.939,58.5-65.105,105.148-12.15,18.473,20.936a2.49,2.49,0,0,1,.294,2.891,6.292,6.292,0,0,1-3.049,2.693l-.912.431a14.58,14.58,0,0,1-2.853.824,10.965,10.965,0,0,1-3.132-.12c-.476-.111-.962-.2-1.468-.27a5.363,5.363,0,0,0-.7-.076,4.951,4.951,0,0,0-.737-.068c-.492-.041-.992-.053-1.48-.052-.249,0-.5.006-.749.027-.266,0-.5.017-.765.044s-.488.037-.744.069c-.515.058-1.009.124-1.531.211-.539.086-1.078.208-1.611.336a24.139,24.139,0,0,0-2.875.888c-.271.1-.528.206-.784.308-.275.114-.544.232-.812.357-.726.352-.969.477-1.209.608-2.212,1.369-2.384,1.494-2.529,1.617a7.84,7.84,0,0,0-.7.562,6.962,6.962,0,0,0-.649.57,14.722,14.722,0,0,0-1.185,1.231,9.346,9.346,0,0,0-.829,1.151,4.574,4.574,0,0,0-.371.616c-.129.211-.225.425-.326.632a4.676,4.676,0,0,0-.249.629,4.447,4.447,0,0,0-.2.645,4.69,4.69,0,0,0-.127.643,3.857,3.857,0,0,0-.083.71,5.747,5.747,0,0,0,.006.65,7.472,7.472,0,0,0,.233,1.322,2.9,2.9,0,0,0,.169.494c.163.365.25.535.343.712s.225.362.345.553c.135.181.277.36.431.535a6.159,6.159,0,0,0,.433.445,8.408,8.408,0,0,0,2.223,1.538,7.341,7.341,0,0,0,.917.415,11.961,11.961,0,0,0,2.025.633,18.407,18.407,0,0,0,4.892.455,20.719,20.719,0,0,0,3.508-.384c.345-.056.705-.13,1.044-.211s.628-.146.935-.228c.254-.068.521-.141.778-.227,1.033-.329,1.411-.471,1.79-.615.2-.077.407-.166.623-.259q.424-.175.835-.369c.275-.129.545-.266.813-.409.623-.329.834-.448,1.035-.577.262-.151.518-.307.763-.476a6.8,6.8,0,0,0,.585-.408c.965-.73,1.25-.961,1.529-1.217.474-.445.659-.629.849-.824s.37-.4.537-.606a10.124,10.124,0,0,0,1.347-2.032,1.528,1.528,0,0,0,.214-.454,3.73,3.73,0,0,0,.226-.548,7.13,7.13,0,0,0,.331-1.287,2.883,2.883,0,0,1,.34-1.026,3.141,3.141,0,0,1,.292-.509,6.421,6.421,0,0,1,2.043-1.812,6.556,6.556,0,0,1,.68-.374l.9-.425a9.851,9.851,0,0,1,4.061-.937c2.018.107,3.3.573,4.037,1.414l18.462,20.941-21.315,23.707c-1.083,1.2-1.21,2.482-.516,3.438a4.1,4.1,0,0,0,2.072,1.277,8.633,8.633,0,0,0,5.578-.646,25.868,25.868,0,0,1,3.37-1.238c.937-.26,1.555-.4,2.167-.523,5.943-1.121,11.359.03,14.045,2.815A6.767,6.767,0,0,1,2173.8-1639.567Zm-97.978-8.88,15.583-7.356a3.333,3.333,0,0,0,.418-.242,3.891,3.891,0,0,0,1.079-1.19,5.552,5.552,0,0,0,.311-4.51c-.6-2.111-2.125-4.913-5.439-8.674-4.717-5.333-8.288-7.542-11.048-8.455a9.472,9.472,0,0,0-3.6-.49,5.855,5.855,0,0,0-2.056.492l-15.583,7.357c-9.128,4.308-15.117,11.031-15.656,17.609l-.481,5.623a.817.817,0,0,0,.208.626,1.417,1.417,0,0,0,.694.4l7.172,2c8.41,2.353,19.272,1.119,28.4-3.19" transform="translate(-1956.627 1723.651)"/></g><g transform="translate(181.552 3310.434)"><path class="c" d="M2067.89-1668.851a3.348,3.348,0,0,1-.418.242l-15.583,7.356c-9.128,4.308-19.99,5.542-28.406,3.183l-7.166-2a1.417,1.417,0,0,1-.694-.4.817.817,0,0,1-.208-.626l.481-5.623c.539-6.578,6.529-13.3,15.656-17.609l15.583-7.357a5.855,5.855,0,0,1,2.056-.492,9.47,9.47,0,0,1,3.6.49c2.761.913,6.332,3.122,11.048,8.455,3.315,3.761,4.84,6.564,5.439,8.674a5.551,5.551,0,0,1-.311,4.51A3.888,3.888,0,0,1,2067.89-1668.851Zm-17.832,5.521,15.094-7.125a2.738,2.738,0,0,0,.3-1.5c-.038-1.652-1.062-4.692-5.317-9.518a31.154,31.154,0,0,0-7.884-6.833,7.343,7.343,0,0,0-3.518-1.165l-15.349,7.229c-7.791,3.678-12.9,9.412-13.363,15.024l-.415,4.877,6.209,1.732c7.177,2.008,16.451.958,24.243-2.72" transform="translate(-2015.413 1692.19)"/></g><g transform="translate(185.745 3313.154)"><path class="a" d="M2064.239-1672.744a2.738,2.738,0,0,1-.3,1.5l-15.094,7.125c-7.792,3.678-17.066,4.728-24.232,2.714l-6.22-1.727.421-4.871c.453-5.618,5.566-11.352,13.357-15.03l15.3-7.225a7.241,7.241,0,0,1,3.563,1.161,31.154,31.154,0,0,1,7.884,6.833C2063.177-1677.436,2064.2-1674.4,2064.239-1672.744Zm-16.872,3.214a2.891,2.891,0,0,0,2.627-1.241.854.854,0,0,0-.1-.989,1.7,1.7,0,0,0-1.189-.476l-12.77-.754,1.74-3.552a.856.856,0,0,0-.107-.992,1.7,1.7,0,0,0-1.19-.479,2.887,2.887,0,0,0-2.627,1.24l-2.395,4.9a.865.865,0,0,0,.1.993,1.72,1.72,0,0,0,1.193.478l14.716.87" transform="translate(-2018.393 1690.257)"/></g><g transform="translate(179.991 3442.729)"><path class="b" d="M2030.565-1585.1l-6.278,2.964-9.983-11.325,6.288-2.969a18.074,18.074,0,0,1,8.61-1.715,9.278,9.278,0,0,1,6.472,2.6C2038.435-1592.405,2036.153-1587.734,2030.565-1585.1Z" transform="translate(-2014.304 1598.167)"/></g><g transform="translate(175.144 3440.012)"><path class="c" d="M2040.8-1596.5c3.771,4.277.639,10.667-6.986,14.266l-6.288,2.969-1.859.878a2.551,2.551,0,0,1-2.778-.163c-.506-.574-.077-1.429.946-1.914l1.859-.877,6.278-2.964c5.587-2.638,7.87-7.31,5.109-10.439a9.272,9.272,0,0,0-6.472-2.606,18.077,18.077,0,0,0-8.61,1.715l-6.288,2.969-1.859.878a2.551,2.551,0,0,1-2.777-.165c-.505-.574-.078-1.429.947-1.912l1.859-.878,6.288-2.969C2027.789-1601.315,2037.029-1600.776,2040.8-1596.5Z" transform="translate(-2010.858 1600.098)"/></g><g transform="translate(162.156 3457.072)"><path class="b" d="M2014.175-1586.189a2.816,2.816,0,0,1-1.728,1.849,5.107,5.107,0,0,1-1.717.466,4.255,4.255,0,0,1-1.286-.082,3.223,3.223,0,0,0-2.421.508l-3.645,2.572-1.75-1.987,4.7-1.372a2.187,2.187,0,0,0,1.629-1.406,2.817,2.817,0,0,1,1.728-1.849,5.147,5.147,0,0,1,1.717-.466,2.97,2.97,0,0,1,2.473.713A1.215,1.215,0,0,1,2014.175-1586.189Z" transform="translate(-2001.628 1587.974)"/></g><g transform="translate(148.08 3444.209)"><path class="b" d="M2033.935-1576.115c.187.212.041.528-.338.706l-22.517,10.63a.942.942,0,0,1-1.02-.064l-18.356-20.823c-.187-.212-.035-.522.344-.7l22.517-10.63a.924.924,0,0,1,1.014.059Zm-25.805,1.964,4.66-3.29a10.413,10.413,0,0,0,1.565-.02,11.892,11.892,0,0,0,3.995-1.082c2.154-1.009,3.736-2.611,4.02-4.291a2.9,2.9,0,0,0-.713-2.437c-1.061-1.2-3.174-1.883-5.732-1.656a11.947,11.947,0,0,0-4,1.076,7.6,7.6,0,0,0-3.674,3.266l-6.014,1.749a2.618,2.618,0,0,0-1.438.944.909.909,0,0,0,.014,1.159l4.111,4.665a1.855,1.855,0,0,0,1.449.481,3.218,3.218,0,0,0,1.757-.564" transform="translate(-1991.624 1597.115)"/></g><g transform="translate(143.935 3441.488)"><path class="c" d="M2036.716-1572.587l-22.605,10.672c-2.427,1.147-5.371.972-6.568-.387l-18.358-20.823c-1.2-1.359-.2-3.392,2.226-4.539l22.517-10.63c2.427-1.146,5.359-.967,6.568.388l2.409,2.731-1.859.878c-1.024.483-1.452,1.338-.947,1.912l-3.321-3.767a.924.924,0,0,0-1.014-.059l-22.517,10.63c-.379.179-.531.488-.344.7l18.356,20.823a.942.942,0,0,0,1.02.064l22.417-10.582c.479-.226.625-.543.443-.749l-3.226-3.66a2.549,2.549,0,0,0,2.776.163l1.86-.878,2.3,2.614C2040.031-1575.729,2039.078-1573.739,2036.716-1572.587Z" transform="translate(-1988.678 1599.049)"/></g><g transform="translate(87 3364.555)"><path class="b" d="M2162.4-1545.215a6.219,6.219,0,0,0-1.228-2.081c-2.82-3.2-9.083-4.392-15.593-2.731-.279.061-.544.134-.823.212a24.128,24.128,0,0,0-3.157,1.137,10,10,0,0,1-4.594.906l-1.418-.214a4.5,4.5,0,0,1-2.268-1.282,2.843,2.843,0,0,1-.162-3.515,4.588,4.588,0,0,1,.588-.781l24.81-27.592-19.254-21.839c-1.473-1.67-5.1-1.885-8.092-.471l-.9.426c-1.915.922-3.173,2.337-3.356,3.72a9.092,9.092,0,0,1-2.123,4.315,17.792,17.792,0,0,1-6.022,4.477c-4.921,2.347-11.087,3.108-15.9,1.482-.2-.066-.389-.136-.577-.211a9.344,9.344,0,0,1-3.577-2.39c-.122-.139-.239-.281-.347-.428a6.234,6.234,0,0,1-.472-6.693,9.6,9.6,0,0,1,.636-1.115,16.736,16.736,0,0,1,6.81-5.548,23.038,23.038,0,0,1,14.53-1.9,9.455,9.455,0,0,0,5.984-.7l.912-.431c2.994-1.414,4.222-3.918,2.744-5.6l-17.658-20.031-42.693,4.947c-2.237.259-4.1-.3-5.018-1.346a2.8,2.8,0,0,1-.614-2.019l.048-.464a3.5,3.5,0,0,1,.325-1.027,5.032,5.032,0,0,1,1.158-1.474,7.684,7.684,0,0,1,1.829-1.216,20.791,20.791,0,0,0,2.707-1.632,15.327,15.327,0,0,0,2.511-2.192c.219-.253.443-.518.65-.766,2.406-3.108,2.572-6.478.381-8.963a9.251,9.251,0,0,0-3.357-2.314,16.1,16.1,0,0,0-5.818-1.165,24.52,24.52,0,0,0-8.734,1.428c-.356.134-.707.273-1.057.411-.324.135-.652.281-2.015.951-.284.16-.591.332-.892.51-.194.118-.39.236-.578.362s-.38.25-.542.37c-.179.119-.356.257-.535.377a15.494,15.494,0,0,0-2.2,1.992c-.134.134-.246.274-.694.8-.107.146-.212.294-.3.442-.107.148-.2.29-.516.811a10.008,10.008,0,0,0-.871,2.177,6.3,6.3,0,0,0-.145.8,5.249,5.249,0,0,0,.053,1.688,4.26,4.26,0,0,0,.183.8c.07.187.141.393.234.587a7.268,7.268,0,0,0,1.636,2.2,3.654,3.654,0,0,0,.386.331c.176.128.347.269.552.392.187.141.414.273.623.4a12.8,12.8,0,0,0,2.448,1.042,4.377,4.377,0,0,1,2.025,1.185,2.437,2.437,0,0,1,.63,1.844l-.059.612a2.883,2.883,0,0,1-.319,1.069,7.222,7.222,0,0,1-4.5,3.209,10.362,10.362,0,0,1-1.605.325l-40.493,4.668-58.5,65.105,46.669,52.939,105.161-12.172,20.817-23.164a7.738,7.738,0,0,1,.848-.789,10.317,10.317,0,0,1,8.693-1.724,4.186,4.186,0,0,1,1.8,1.177,2.409,2.409,0,0,1,.539,1.725,10.168,10.168,0,0,0,.075,1.175,9.345,9.345,0,0,0,.263,1.033,3.642,3.642,0,0,0,.18.436,2.051,2.051,0,0,0,.208.414,6.08,6.08,0,0,0,.818,1.159,6.161,6.161,0,0,0,.588.6,7.983,7.983,0,0,0,.755.606,5.933,5.933,0,0,0,.662.429,7.866,7.866,0,0,0,.78.418c.3.142.614.285.928.409s.625.227.94.316a16.652,16.652,0,0,0,2.059.476,20.943,20.943,0,0,0,3.4.242c.405-.006.8-.024,1.2-.046s.82-.071,1.231-.123a23.735,23.735,0,0,0,4-.84,25.87,25.87,0,0,0,3.788-1.462,5.793,5.793,0,0,0,.668-.332c.234-.128.467-.256.712-.408C2160.965-1537.183,2163.693-1541.492,2162.4-1545.215Zm-103.088-15.193-6.288,2.969h0l2.315,2.624c1.168,1.342.215,3.332-2.247,4.532l-22.506,10.625c-2.427,1.147-5.371.972-6.57-.387l-18.356-20.823c-1.2-1.359-.2-3.392,2.226-4.538l22.517-10.631c2.427-1.146,5.359-.965,6.568.388l2.409,2.731,6.288-2.969a25.051,25.051,0,0,1,10.342-2.382c4.321-.031,8.171,1.19,10.29,3.594,3.771,4.279.639,10.667-6.986,14.267" transform="translate(-1948.214 1653.726)"/></g><g transform="translate(157.053 3454.354)"><path class="c" d="M1999.64-1583.771l6.014-1.749a7.6,7.6,0,0,1,3.674-3.266,11.918,11.918,0,0,1,4-1.076c2.558-.228,4.671.453,5.732,1.656a2.9,2.9,0,0,1,.713,2.437c-.284,1.68-1.865,3.283-4.02,4.291a11.892,11.892,0,0,1-3.995,1.082,10.413,10.413,0,0,1-1.565.02l-4.66,3.29a3.218,3.218,0,0,1-1.757.564,1.855,1.855,0,0,1-1.449-.481l-4.111-4.665a.908.908,0,0,1-.014-1.159A2.618,2.618,0,0,1,1999.64-1583.771Zm13.24-3.4a5.147,5.147,0,0,0-1.717.466,2.817,2.817,0,0,0-1.728,1.849,2.187,2.187,0,0,1-1.629,1.406l-4.7,1.372,1.75,1.987,3.645-2.572a3.223,3.223,0,0,1,2.421-.508,4.255,4.255,0,0,0,1.286.082,5.107,5.107,0,0,0,1.717-.466,2.816,2.816,0,0,0,1.728-1.849,1.216,1.216,0,0,0-.3-1.052,2.97,2.97,0,0,0-2.473-.713" transform="translate(-1998.001 1589.905)"/></g><g transform="translate(87 3461.455)"><path class="f" d="M1994.884-1531.92l8.328,32.294-46.669-52.938-8.328-32.294Z" transform="translate(-1948.214 1584.859)"/></g><g transform="translate(133.67 3502.22)"><path class="g" d="M2086.543-1555.886l8.328,32.294-105.16,12.173-8.328-32.294Z" transform="translate(-1981.383 1555.886)"/></g><g transform="translate(235.968 3288.118)"><path class="h" d="M2292.315-1678.634a5.55,5.55,0,0,1,.738,1.051,2.706,2.706,0,0,1,.3.585,2.552,2.552,0,0,1,.222.611,6.316,6.316,0,0,1-.434,4.621,8.7,8.7,0,0,1-1.09,1.839,6.972,6.972,0,0,1-.432.547,11.3,11.3,0,0,1-1.106,1.177,6.031,6.031,0,0,1-.615.537,4.846,4.846,0,0,1-.636.531,17.473,17.473,0,0,1-2.954,1.871c-.325.173-.657.338-.992.494q-.84.393-1.712.712c-.322.117-.622.222-.944.322a21.406,21.406,0,0,1-2.123.578,21.946,21.946,0,0,1-7.978.41c-.487-.071-.979-.163-1.451-.269a6.7,6.7,0,0,0-1.424-.2,9.706,9.706,0,0,0-1.531.051c-.26.027-.521.07-.777.12a12.616,12.616,0,0,0-1.528.431c-.245.1-.49.2-.723.305l-.913.432a6.321,6.321,0,0,0-3.059,2.7,2.772,2.772,0,0,0-.308,1.135,2.032,2.032,0,0,0,.066.737,2.466,2.466,0,0,0,.548,1.013l17.679,20.055-25.448,28.317a6.422,6.422,0,0,1-1.557,1.238,10.573,10.573,0,0,1-2.714,1.017,8.044,8.044,0,0,1-2.141.163,7.414,7.414,0,0,1-1.362-.205,4.358,4.358,0,0,1-1.094-.455c-.968-.819-1.095-1.014-1.191-1.223-.165-1.511-.173-1.9-.236-2.254-.021-.186-.046-.376-.084-.561s-.1-.36-.156-.535a6.026,6.026,0,0,0-.518-1.143,6.391,6.391,0,0,0-.663-.933,7.16,7.16,0,0,0-.663-.677,7.2,7.2,0,0,0-.622-.509c-.31-.225-.546-.369-.767-.512a25.039,25.039,0,0,0-2.338-1.043c-.227-.079-.47-.139-.7-.207-1.085-.265-1.384-.318-1.688-.377-.266-.034-.526-.079-.815-.1-.4-.059-.815-.084-1.247-.11-2.306.011-2.606.03-2.9.053-.456.038-.728.069-1.01.105-.739.093-1.415.218-2.083.356-2.078.54-2.411.644-2.745.767a22.116,22.116,0,0,0-2.477,1q-.39.186-.767.383c-1.248.7-1.454.837-1.677.978-.318.211-.569.374-.791.532a14.634,14.634,0,0,0-1.39,1.107,10.3,10.3,0,0,0-1.185,1.176c-.2.208-.357.417-.525.621-.2.242-.353.476-.511.708a8.4,8.4,0,0,0-.991,1.9,5.765,5.765,0,0,0-.313,1.112,4.42,4.42,0,0,0-.087.58,6.729,6.729,0,0,0-.073.954c.014.177.03.356.051.54a7.73,7.73,0,0,0,.546,1.8,5.866,5.866,0,0,0,.916,1.393,6.359,6.359,0,0,0,.45.461,11.111,11.111,0,0,0,1.12.894c.259.169.446.293.64.4a7.937,7.937,0,0,0,1.386.661,10.992,10.992,0,0,0,1.538.511c.31.083.564.139.819.2.421.083.681.128.926.172a16.8,16.8,0,0,0,2.831.21,21.476,21.476,0,0,0,4.707-.456c2.167-.529,2.417-.62,2.666-.694.795-.26,1.324-.449,1.808-.65.267-.108.556-.228.812-.349a9.191,9.191,0,0,1,4.259-.854,6.512,6.512,0,0,1,1.318.208,4.876,4.876,0,0,1,1.123.45,3.256,3.256,0,0,1,.8.643,2.3,2.3,0,0,1,.462.792,2.358,2.358,0,0,1-.073,1.6,4.529,4.529,0,0,1-.747,1.227l-21.314,23.707-43.676,5.049a9.963,9.963,0,0,0-3.058.868c-1.877.882-3.218,2.281-3.371,3.73a2.8,2.8,0,0,0,.585,2.313,4.225,4.225,0,0,0,2.006,1.18,12.322,12.322,0,0,1,2.46,1.037,9.254,9.254,0,0,1,1.342.922,7.708,7.708,0,0,1,.726.688,7.084,7.084,0,0,1,.606.759c2.244,3.276.826,7.786-4.032,11.273a20.789,20.789,0,0,1-3.111,1.833c-5.927,2.846-13.353,3.217-17.941.606a10.768,10.768,0,0,1-1.023-.667,9.087,9.087,0,0,1-1.057-.948,7.17,7.17,0,0,1-.716-.922c-2.049-3.2-.677-7.525,3.913-10.929a21.6,21.6,0,0,1,2.931-1.808c1.9-.933,3.163-2.331,3.339-3.722.013-1.416-.187-1.873-.518-2.267a5.226,5.226,0,0,0-3.471-1.448,10.357,10.357,0,0,0-1.594.045l-39.49,4.574-19.3-21.889c-1.473-1.67-5.1-1.885-8.092-.471l-.9.426c-1.914.922-3.173,2.336-3.356,3.72a9.092,9.092,0,0,1-2.123,4.315,17.792,17.792,0,0,1-6.022,4.477c-4.921,2.347-11.087,3.108-15.9,1.482a10.093,10.093,0,0,1-4.061-2.5c-.215-.241-.332-.383-.44-.529a6.234,6.234,0,0,1-.472-6.693,9.477,9.477,0,0,1,.636-1.115,16.736,16.736,0,0,1,6.81-5.548,23.038,23.038,0,0,1,14.53-1.9,9.455,9.455,0,0,0,5.984-.7l.912-.431c2.994-1.414,4.222-3.918,2.744-5.6l-17.658-20.031,25.442-28.323a6.834,6.834,0,0,1,2.169-1.563,8.522,8.522,0,0,1,5.594-.646,4,4,0,0,1,1.81,1,2.369,2.369,0,0,1,.664,1.785,5.85,5.85,0,0,0,.272,2.222,6.538,6.538,0,0,0,1.151,2.043c2.994,3.055,8.058,4.2,13.581,3.308a24.522,24.522,0,0,0,2.526-.543,26.017,26.017,0,0,0,4.114-1.493c5.965-2.807,9.42-7.619,8.01-11.737a6.145,6.145,0,0,0-1.127-1.971c-3-3.136-8.417-4.286-14.219-3.191-.753.146-1.37.29-1.988.46a26.91,26.91,0,0,0-3.689,1.328,8.663,8.663,0,0,1-5.572.652,4.036,4.036,0,0,1-1.8-.964,2.685,2.685,0,0,1,.24-3.757l21.315-23.707,13.731-1.59,23.8-2.75a9.717,9.717,0,0,0,3.062-.871,7.278,7.278,0,0,0,2.321-1.66,4.516,4.516,0,0,0,.712-1,3.506,3.506,0,0,0,.314-1.075,2.5,2.5,0,0,0-.612-1.985,4.181,4.181,0,0,0-2-1.172,9.246,9.246,0,0,1-.885-.307,12.981,12.981,0,0,1-1.206-.526,10.949,10.949,0,0,1-1.158-.707,7.579,7.579,0,0,1-1.047-.854,6.942,6.942,0,0,1-.666-.784,3.245,3.245,0,0,1-.439-.658,3,3,0,0,1-.273-.525,6.61,6.61,0,0,1-.508-2.471,9.369,9.369,0,0,1,.217-1.561,7.9,7.9,0,0,1,.352-1.05c.1-.224.2-.449.322-.673a4.444,4.444,0,0,1,.3-.549,5.856,5.856,0,0,1,.533-.791c.14-.2.285-.391.448-.583.307-.347.442-.518.61-.685a15.486,15.486,0,0,1,1.469-1.338c.245-.2.508-.408.764-.6.356-.239.591-.4.836-.553.218-.148.44-.287.668-.422.526-.311,1.065-.606,1.628-.875s.927-.428,1.283-.561a9.853,9.853,0,0,1,.934-.352c2.14-.684,2.413-.751,2.679-.806a21.169,21.169,0,0,1,2.116-.406c1.216-.159,1.488-.173,1.759-.186.305-.03.622-.046.927-.058a22.7,22.7,0,0,1,2.412.072c.289.022.577.045.836.09.3.035.583.087.865.139a17.189,17.189,0,0,1,3.131.941,13.126,13.126,0,0,1,1.79.993,7.129,7.129,0,0,1,1.367,1.179,5.324,5.324,0,0,1,.383.484,2.71,2.71,0,0,1,.422.64,2.514,2.514,0,0,1,.284.554,2.242,2.242,0,0,1,.213.544,5.256,5.256,0,0,1,.284,1.9,3.306,3.306,0,0,1-.038.619,8.862,8.862,0,0,1-.926,2.813c-.119.224-.241.44-.381.657s-.287.427-.455.647c-.387.491-.532.666-.688.846-.359.381-.581.611-.833.844-.229.222-.48.438-.738.647-.435.364-.713.585-1.014.8-.207.141-.419.294-.63.429-.44.289-.881.557-1.348.813-.245.134-.485.256-.719.384-1.909.927-3.162,2.332-3.339,3.722.823,2.246,1.079,2.448,1.372,2.63a5.7,5.7,0,0,0,2.645.764,8.057,8.057,0,0,0,1.6-.041l28.938-3.347,16.706-1.933,19.281,21.87a4.973,4.973,0,0,0,3.467,1.393,8.922,8.922,0,0,0,2.3-.16,9.707,9.707,0,0,0,2.325-.761l.9-.425a8.206,8.206,0,0,0,1.85-1.21,5.2,5.2,0,0,0,1.165-1.468,2.839,2.839,0,0,0,.215-.526,2.449,2.449,0,0,0,.125-.518,7.334,7.334,0,0,1,.473-1.663,12.559,12.559,0,0,1,.782-1.491,14.6,14.6,0,0,1,2.9-3.134c1.322-.987,1.534-1.121,1.734-1.251.235-.146.452-.276.674-.415.24-.141.508-.284.77-.417.262-.151.533-.287.823-.424.456-.217.74-.342,1.036-.454.262-.114.55-.234.834-.34.266-.09.516-.182.795-.279.245-.08.5-.165.767-.238,1.034-.294,1.311-.354,1.583-.421a26.878,26.878,0,0,1,3.232-.519c.317-.034.649-.051.965-.067.6-.028,1.188-.03,1.753-.014,1.341.09,1.63.114,1.917.155a18.184,18.184,0,0,1,2.431.521c.259.082.5.161.734.245a3.972,3.972,0,0,1,.7.279,3.005,3.005,0,0,1,.557.258,5.666,5.666,0,0,1,.729.38,7.988,7.988,0,0,1,1.12.77,2.993,2.993,0,0,1,.474.429C2292.01-1678.963,2292.169-1678.8,2292.315-1678.634Z" transform="translate(-2054.087 1708.05)"/></g><g transform="translate(499.706 3421.475)"><path class="c" d="M2251.322-1612.791a.85.85,0,0,1,.1.988l-.694,1.416-5.182,10.57a2.867,2.867,0,0,1-2.616,1.235,1.706,1.706,0,0,1-1.192-.48.857.857,0,0,1-.105-.992l5.157-10.519.714-1.455a2.557,2.557,0,0,1,1.7-1.153,3.174,3.174,0,0,1,.928-.087,2.2,2.2,0,0,1,.737.163A1.238,1.238,0,0,1,2251.322-1612.791Z" transform="translate(-2241.528 1613.273)"/></g><g transform="translate(364.942 3471.304)"><path class="a" d="M2146.557-1569.3a3.285,3.285,0,0,1-.387-3.783,8.294,8.294,0,0,1,4.014-3.546,12.725,12.725,0,0,1,6.06-1.21,6.482,6.482,0,0,1,4.549,1.818,3.241,3.241,0,0,1,.387,3.782,8.24,8.24,0,0,1-4,3.542,12.736,12.736,0,0,1-6.07,1.214A6.575,6.575,0,0,1,2146.557-1569.3Z" transform="translate(-2145.75 1577.858)"/></g><g transform="translate(361.094 3468.587)"><path class="c" d="M2165.615-1576.986c2.946,3.343.474,8.335-5.491,11.151a19.1,19.1,0,0,1-10.433,1.729,7.962,7.962,0,0,0-2.019-4.408,6.575,6.575,0,0,0,4.551,1.816,12.736,12.736,0,0,0,6.07-1.214,8.245,8.245,0,0,0,4-3.54,3.243,3.243,0,0,0-.387-3.783,6.482,6.482,0,0,0-4.549-1.818,12.725,12.725,0,0,0-6.06,1.21,8.294,8.294,0,0,0-4.014,3.546,3.285,3.285,0,0,0,.387,3.783,12.329,12.329,0,0,0-4.656-3.163c.773-2.314,3.042-4.632,6.453-6.243C2155.434-1580.737,2162.667-1580.328,2165.615-1576.986Z" transform="translate(-2143.015 1579.79)"/></g><g transform="translate(337.687 3475.193)"><path class="c" d="M2154.444-1570.425a7.969,7.969,0,0,1,2.018,4.408c.567,4.95-3.622,10.6-11.178,14.169a2.537,2.537,0,0,1-2.771-.158c-.506-.574-.083-1.435.94-1.919,3.964-1.87,6.75-4.449,8.068-7.12a6.561,6.561,0,0,0-.785-7.632c-1.946-2.208-5.292-3.445-9.177-3.668a25.7,25.7,0,0,0-12.191,2.442,2.548,2.548,0,0,1-2.777-.163c-.505-.574-.077-1.429.947-1.914,7.555-3.565,16.319-4.028,22.248-1.61A12.334,12.334,0,0,1,2154.444-1570.425Z" transform="translate(-2126.379 1575.095)"/></g><g transform="translate(319.882 3482.162)"><path class="a" d="M2135.42-1552.693c-.025.55-.12,1.168-.16,1.818-2.458,1.168-4.915,2.327-7.411,3.506l-3.463,1.635a71.262,71.262,0,0,0-7.336-5,8.068,8.068,0,0,1-2.116-1.632,5.385,5.385,0,0,1-1.044-4.922c.774-3.968.881-7.816,1.248-11.619a1.338,1.338,0,0,1,.227-.689.951.951,0,0,1,.414-.319l.267-.108a1.754,1.754,0,0,1,.782-.113.832.832,0,0,1,.53.261.7.7,0,0,1,.164.381c.28,1.8.392,3.7.733,5.607a9.017,9.017,0,0,0,1.352,3.159c.477.632.955,1.21,1.46,1.783.622.7,1.265,1.382,1.919,2.053l.083.076.083.058.166.117a4.163,4.163,0,0,0,3.633-.1,4.021,4.021,0,0,0,.617-.353,2.1,2.1,0,0,0,1.067-1.722l-.037-.186-.066-.2-.087-.207a9.537,9.537,0,0,0-.8-1.01c-.3-.344-.594-.656-.863-.961-.11-.125-.219-.25-.314-.374l-.055-.062c-.208-.237-.062-.553.3-.733l.205-.105a.922.922,0,0,1,.96.015l.077.087c1.438,1.557,2.913,3.09,4.279,4.637a42.685,42.685,0,0,1,2.889,3.617A2.541,2.541,0,0,1,2135.42-1552.693Z" transform="translate(-2113.726 1570.142)"/></g><g transform="translate(315.738 3479.443)"><path class="c" d="M2125.585-1544.948l-1.914.9a5,5,0,0,0-1.546,1.095,68.291,68.291,0,0,0-6.959-4.753,10.111,10.111,0,0,1-2.739-2.125,6.985,6.985,0,0,1-1.443-6.357,114.606,114.606,0,0,0,1.212-11.445,3.644,3.644,0,0,1,.725-1.86,5.821,5.821,0,0,1,2.226-1.714,8.524,8.524,0,0,1,.906-.366,8,8,0,0,1,3.636-.453,4.053,4.053,0,0,1,2.575,1.186,2.424,2.424,0,0,1,.579,1.228c.29,1.9.4,3.793.716,5.566a7.172,7.172,0,0,0,.581,1.631,5.8,5.8,0,0,1,1.825-1.367c.139-.075.25-.127.373-.185,2.26-1.066,4.993-.988,6.3.194l.188.194c1.424,1.562,2.91,3.1,4.317,4.7a43.757,43.757,0,0,1,3.021,3.785,4.072,4.072,0,0,1,.6,2.624c-.016.272-.041.539-.067.8a6.7,6.7,0,0,0-2.139.6l-9.506,4.488c2.5-1.179,4.953-2.338,7.411-3.506.041-.65.135-1.268.161-1.818a2.54,2.54,0,0,0-.293-1.6,42.437,42.437,0,0,0-2.889-3.616c-1.365-1.549-2.841-3.082-4.279-4.639l-.077-.087a.891.891,0,0,0-.915-.037l-.173.09c-.439.217-.585.533-.4.744l.077.089c.095.123.2.248.314.373.269.305.562.618.863.961a9.5,9.5,0,0,1,.8,1.01l.087.207.066.2.037.186a2.1,2.1,0,0,1-1.055,1.717,4.26,4.26,0,0,1-.629.359,4.163,4.163,0,0,1-3.633.1l-.166-.117-.083-.058-.083-.076c-.654-.671-1.3-1.348-1.919-2.053-.5-.573-.983-1.151-1.439-1.758a8.934,8.934,0,0,1-1.368-3.16c-.346-1.93-.458-3.829-.738-5.631a.706.706,0,0,0-.164-.381.833.833,0,0,0-.53-.261,1.658,1.658,0,0,0-.767.114l-.283.107a.95.95,0,0,0-.414.319,1.338,1.338,0,0,0-.227.689c-.367,3.8-.474,7.652-1.248,11.619a5.387,5.387,0,0,0,1.044,4.922,8.065,8.065,0,0,0,2.116,1.632A71.262,71.262,0,0,1,2125.585-1544.948Z" transform="translate(-2110.781 1572.075)"/></g><g transform="translate(238.874 3425.015)"><path class="a" d="M2266.479-1557.824l-58.491,65.094-105.166,12.167-46.67-52.938,21.18-23.574a3.117,3.117,0,0,1,.441-.429,10.215,10.215,0,0,1,8.354-1.823,4.5,4.5,0,0,1,1.96,1.073,2.579,2.579,0,0,1,.717,1.928,3.879,3.879,0,0,0,.019.521c.088.816.115.989.146,1.15a7.283,7.283,0,0,0,.353.974,1.9,1.9,0,0,0,.208.414,6.081,6.081,0,0,0,.818,1.159,6.3,6.3,0,0,0,.588.6,5.761,5.761,0,0,0,.606.491,6.508,6.508,0,0,0,.811.544,7.861,7.861,0,0,0,.779.418c.3.142.614.285.929.409a8.615,8.615,0,0,0,.94.316,12.223,12.223,0,0,0,2.06.476,17.109,17.109,0,0,0,3.4.242,10.242,10.242,0,0,0,1.2-.048,12.1,12.1,0,0,0,1.231-.123,24.264,24.264,0,0,0,6.719-1.8c1.307-.59,1.529-.713,1.742-.83.234-.128.467-.256.713-.408,4.963-2.846,7.689-7.153,6.394-10.878a6.177,6.177,0,0,0-1.228-2.08c-2.82-3.2-9.083-4.393-15.593-2.732-.278.061-.544.134-.823.212a24.041,24.041,0,0,0-3.157,1.137,9.977,9.977,0,0,1-4.594.9l-1.417-.212a4.5,4.5,0,0,1-2.27-1.282,2.844,2.844,0,0,1-.162-3.515l25.442-28.322,39.49-4.574a9.066,9.066,0,0,1,1.185-.06,5.621,5.621,0,0,1,3.654,1.224,2.634,2.634,0,0,1,.8,1.6,2.323,2.323,0,0,1,0,.443l-.048.464c-.177,1.39-1.435,2.789-3.339,3.722a20.485,20.485,0,0,0-2.69,1.634c-4.83,3.578-6.2,7.9-4.153,11.1a6.817,6.817,0,0,0,.606.8,8.077,8.077,0,0,0,.839.811,10.732,10.732,0,0,0,1.082.767c4.857,2.768,12.284,2.4,18.21-.449a20.792,20.792,0,0,0,3.111-1.833c4.858-3.487,6.276-8,4.032-11.273a6.47,6.47,0,0,0-.5-.637,7.929,7.929,0,0,0-.836-.809,9.222,9.222,0,0,0-1.34-.922,12.4,12.4,0,0,0-2.46-1.038,4.208,4.208,0,0,1-2-1.177,2.4,2.4,0,0,1-.625-1.839l.036-.477c.154-1.449,1.495-2.849,3.372-3.73a9.963,9.963,0,0,1,3.058-.868l43.663-5.043,18.863,21.377a3.022,3.022,0,0,0,.888.668,6.169,6.169,0,0,0,1.429.456c.232.032.426.055.642.068a6.524,6.524,0,0,0,.759,0,6.22,6.22,0,0,0,.871-.084c.279-.044.562-.1.834-.165a8.388,8.388,0,0,0,1.468-.533,7.5,7.5,0,0,0,1.125-.656,5.36,5.36,0,0,0,1.47-1.639l.262-.882a5.418,5.418,0,0,1,.242-1.175,8.3,8.3,0,0,1,.339-.92,9.568,9.568,0,0,1,1.125-1.961c.314-.412.532-.666.755-.913.158-.178.32-.353.487-.521.139-.145.307-.3.458-.446.318-.3.653-.581,1-.863.239-.174.463-.35.7-.526s.491-.338.741-.5l.791-.48c.218-.129.452-.257.7-.384.418-.224.68-.356.936-.477.479-.227.979-.445,1.49-.633.746-.281.99-.362,1.224-.436,1.688-.5,2.195-.622,2.728-.732a32.568,32.568,0,0,1,3.231-.447c.343-.021.671-.044,1-.042,2.928.138,3.161.169,3.387.194q.433.061.849.156c1.179.283,1.411.35,1.632.422s.426.144.63.214.409.16.6.249a8.84,8.84,0,0,1,.957.459c.27.145.508.307.755.464.182.134.381.27.546.4a8.46,8.46,0,0,1,.968.924,7.54,7.54,0,0,1,.616.836,4.637,4.637,0,0,1,.4.727,3.478,3.478,0,0,1,.218.569,4.785,4.785,0,0,1,.267,1.217,7.208,7.208,0,0,1-.01,1.293,4.74,4.74,0,0,1-.11.661,5.023,5.023,0,0,1-.177.675,3.72,3.72,0,0,1-.2.562,5.923,5.923,0,0,1-.384.817,4.261,4.261,0,0,1-.251.464c-.107.183-.231.365-.349.535a9.009,9.009,0,0,1-.594.792c-.151.187-.3.373-.47.559-.2.207-.4.419-.6.62s-.4.384-.608.56-.441.377-.654.547c-.211.153-.417.312-.625.471a21.075,21.075,0,0,1-2.406,1.472q-.472.249-.962.478c-.545.255-1.107.492-1.693.713-.275.1-.558.2-.845.3-.785.253-1.386.422-2,.57a25.505,25.505,0,0,1-3.021.525,20.837,20.837,0,0,1-3.738.1c-.294-.011-.582-.034-.858-.062-.333-.038-.615-.072-.9-.124a15.107,15.107,0,0,1-1.671-.342,6.248,6.248,0,0,0-1.852-.186,8.381,8.381,0,0,0-3.245.79,5.428,5.428,0,0,0-2.607,2.3,2.149,2.149,0,0,0,.265,2.462Zm-88.106-1.248c-5.929-2.419-14.694-1.956-22.249,1.61-1.024.484-1.452,1.34-.946,1.914a2.548,2.548,0,0,0,2.777.163,25.7,25.7,0,0,1,12.19-2.442c3.885.224,7.231,1.46,9.177,3.668a6.56,6.56,0,0,1,.785,7.632c-1.318,2.671-4.105,5.25-8.068,7.12-1.024.484-1.446,1.345-.94,1.919a2.537,2.537,0,0,0,2.771.158c7.556-3.567,11.745-9.219,11.178-14.169a19.1,19.1,0,0,0,10.433-1.729c5.966-2.816,8.438-7.808,5.492-11.151s-10.181-3.751-16.147-.934c-3.412,1.611-5.68,3.929-6.453,6.243m-25.608,38.549,14.881-7.025c2.026-.957,2.844-2.641,1.849-3.77l-3.25-3.685a3.925,3.925,0,0,0-3.315-.919c.026-.259.052-.526.067-.8a4.074,4.074,0,0,0-.595-2.625,43.933,43.933,0,0,0-3.021-3.784c-1.407-1.6-2.893-3.139-4.306-4.688l-.149-.15c-1.361-1.238-4.093-1.317-6.353-.251-.123.058-.233.11-.339.169a5.82,5.82,0,0,0-1.859,1.383,7.15,7.15,0,0,1-.581-1.631c-.318-1.773-.426-3.664-.716-5.566a2.419,2.419,0,0,0-.578-1.228,4.055,4.055,0,0,0-2.575-1.186,8.125,8.125,0,0,0-3.653.452c-.311.113-.612.236-.889.367a5.813,5.813,0,0,0-2.226,1.714,3.636,3.636,0,0,0-.725,1.86,114.462,114.462,0,0,1-1.212,11.445,6.973,6.973,0,0,0,1.42,6.33,10.147,10.147,0,0,0,2.763,2.151,68.285,68.285,0,0,1,6.959,4.753,1.908,1.908,0,0,0-.29,2.669l3.249,3.687c1,1.128,3.417,1.283,5.443.326" transform="translate(-2056.152 1610.757)"/></g><g transform="translate(395.483 3347.759)"><path class="b" d="M2384.807-1612.726l-58.48,65.088-105.154,12.163-18.852-21.384a2.149,2.149,0,0,1-.265-2.462,5.42,5.42,0,0,1,2.607-2.3,8.361,8.361,0,0,1,3.245-.791,6.472,6.472,0,0,1,1.852.186,15.112,15.112,0,0,0,1.672.342c.354.062.6.094.875.117a6.726,6.726,0,0,0,.837.073c.354.027.675.034.981.04a16.653,16.653,0,0,0,1.859-.056,23.547,23.547,0,0,0,2.791-.355c.4-.083.784-.167,1.172-.262.328-.076.65-.158.978-.25q.414-.12.819-.253c.49-.16.772-.26,1.049-.363.584-.221,1.146-.459,1.691-.713q.49-.23.962-.478a18.2,18.2,0,0,0,2.15-1.3c.469-.328.675-.487.881-.646a7.171,7.171,0,0,0,.654-.547c.2-.165.379-.338.557-.511.252-.25.458-.463.654-.67.229-.259.364-.411.47-.559a3.631,3.631,0,0,0,.342-.435c.37-.528.494-.709.6-.892a2.47,2.47,0,0,0,.252-.464,5.986,5.986,0,0,0,.384-.816,2.825,2.825,0,0,0,.2-.563,5.06,5.06,0,0,0,.177-.675,4.284,4.284,0,0,0,.1-.574,5.829,5.829,0,0,0,.02-1.38,4.8,4.8,0,0,0-.267-1.217,3.5,3.5,0,0,0-.218-.569,2.932,2.932,0,0,0-.207-.414c-.284-.46-.38-.6-.483-.741a9.3,9.3,0,0,0-1.3-1.333c-.165-.134-.365-.27-.546-.4-.248-.158-.485-.32-.756-.466a4.365,4.365,0,0,0-.487-.246,3.7,3.7,0,0,0-.47-.211c-.187-.089-.387-.172-.6-.249s-.415-.148-.63-.214-.453-.139-.687-.207c-1.223-.279-1.506-.331-1.794-.372-.315-.053-.647-.092-.985-.117-1.275-.087-1.614-.1-1.969-.087-.471,0-.948.015-1.425.046-.36.02-.694.053-1.022.093a12.216,12.216,0,0,0-1.355.2c-1.4.271-1.905.4-2.421.543a19,19,0,0,0-1.873.593c-1.034.383-1.535.6-2.013.827-.256.121-.518.253-.768.38-.418.224-.652.352-.87.481-.267.162-.529.311-.791.48s-.508.336-.741.5-.463.352-.7.526c-.352.281-.687.563-1,.863-.152.15-.319.3-.458.446q-.251.251-.487.522a8.938,8.938,0,0,0-.626.754,8.688,8.688,0,0,0-1.016,1.584,5.881,5.881,0,0,0-.452,1.061,6.9,6.9,0,0,0-.367,1.569l-.262.882a4.384,4.384,0,0,1-1,1.259,5.691,5.691,0,0,1-.469.38,7.358,7.358,0,0,1-1.126.656,8.385,8.385,0,0,1-1.468.533c-.273.068-.556.121-.833.165a6.262,6.262,0,0,1-.873.084,6.549,6.549,0,0,1-.743,0c-.232-.014-.426-.037-.658-.069a6.633,6.633,0,0,1-1.047-.274,3.818,3.818,0,0,1-1.269-.849l-18.851-21.384,21.315-23.707a4.473,4.473,0,0,0,.644-.967,2.637,2.637,0,0,0,.176-1.857,2.3,2.3,0,0,0-.462-.792,3.256,3.256,0,0,0-.8-.643,4.876,4.876,0,0,0-1.123-.45,6.528,6.528,0,0,0-1.318-.208,9.191,9.191,0,0,0-4.259.854c-.256.121-.544.24-.812.349-.484.2-1.013.39-1.529.554s-.778.262-1.034.329c-.239.067-.484.131-.733.187-.439.11-.673.167-.912.218a22.221,22.221,0,0,1-4.972.511,16.8,16.8,0,0,1-2.831-.21c-.245-.044-.505-.089-.737-.138-.443-.092-.7-.148-.941-.208a11.989,11.989,0,0,1-1.6-.533,7.9,7.9,0,0,1-1.386-.661c-.194-.111-.381-.235-.58-.353-.226-.167-.4-.272-.551-.393-.32-.256-.442-.375-.579-.5-.211-.2-.36-.357-.5-.518a5.866,5.866,0,0,1-.916-1.393,3.583,3.583,0,0,1-.262-.6,8.492,8.492,0,0,1-.269-1.109c-.037-.274-.052-.453-.067-.63,0-.2.01-.4.022-.621.071-.528.094-.715.14-.913a5.736,5.736,0,0,1,.313-1.112,8.4,8.4,0,0,1,.991-1.9c.158-.232.314-.466.511-.709.167-.2.329-.411.525-.619a10.3,10.3,0,0,1,1.185-1.176,14.8,14.8,0,0,1,1.389-1.107c.224-.157.474-.321.7-.479.316-.194.523-.336.751-.47.48-.28.7-.391.919-.514.352-.179.606-.307.868-.431a22.116,22.116,0,0,1,2.477-1q.5-.183,1-.314a31.979,31.979,0,0,1,3.771-.8c.339-.045.611-.076.894-.094.467-.044.766-.062,1.055-.073.487-.02.715-.03.926-.022a21.331,21.331,0,0,1,2.339.132c.289.023.549.068.815.1.3.059.6.113.881.176,1.04.269,1.283.329,1.51.408s.415.149.62.22a6.044,6.044,0,0,1,.563.229,10.144,10.144,0,0,1,1.11.58,6.578,6.578,0,0,1,.706.461,6.9,6.9,0,0,1,.707.55,6.933,6.933,0,0,1,.573.577,6.036,6.036,0,0,1,.561.708c.076.114.148.231.212.349a6.026,6.026,0,0,1,.518,1.143c.059.175.114.36.156.535s.063.376.084.561a4.534,4.534,0,0,1,.041,1.137,3.263,3.263,0,0,0,.014.462,2.876,2.876,0,0,0,.181.656,2.317,2.317,0,0,0,.383.584,4.128,4.128,0,0,0,.808.639,4.175,4.175,0,0,0,1.089.449,7.089,7.089,0,0,0,1.368.211,8.044,8.044,0,0,0,2.141-.163,9.493,9.493,0,0,0,2.087-.689c.217-.1.428-.211.627-.328a6.422,6.422,0,0,0,1.557-1.238l25.448-28.317,42.692-4.946a8.495,8.495,0,0,1,1.6-.042q.357.021.692.07a6.068,6.068,0,0,1,.7.155,5.835,5.835,0,0,1,1.161.476,3.745,3.745,0,0,1,.708.529c.542.709.608.855.651,1.012a1.8,1.8,0,0,1,.105.478,2.076,2.076,0,0,1,0,.521,5.364,5.364,0,0,1-.265,1.39,3.043,3.043,0,0,0,.148-.439,2.987,2.987,0,0,1-.256.7,4.942,4.942,0,0,1-.691.988,3.048,3.048,0,0,1-.474.48,5.161,5.161,0,0,1-.514.419c-.238.17-.491.339-.76.5q-.264.15-.549.288a19.141,19.141,0,0,0-3.07,1.9,14.024,14.024,0,0,0-1.859,1.628c-.191.2-.376.38-.538.571a6.39,6.39,0,0,0-.47.592c-.14.182-.274.369-.409.556a10.138,10.138,0,0,0-.854,1.569,6.858,6.858,0,0,0-.438,1.328,6.134,6.134,0,0,0-.139.789,3.788,3.788,0,0,0-.032.643,5.4,5.4,0,0,0,.028.675,4.877,4.877,0,0,0,.1.615,5.4,5.4,0,0,0,.152.564,6.124,6.124,0,0,0,.239.594,4.668,4.668,0,0,0,.284.538c.11.177.208.343.322.509.144.18.27.341.4.491.1.113.2.224.307.332a5.876,5.876,0,0,0,.661.588,4.028,4.028,0,0,0,.442.322,4.691,4.691,0,0,0,.728.469c.155.1.343.191.519.284.31.155.636.309.974.442.193.076.4.148.6.212.3.113.619.2.951.293s.692.159,1.036.227c.36.068.552.1.744.127a18.565,18.565,0,0,0,3.363.2,34.178,34.178,0,0,0,4.334-.514c.239-.051.467-.1.7-.16.4-.1.7-.172,1-.26s.588-.172.889-.279a7.094,7.094,0,0,0,.689-.236c.234-.076.467-.169.7-.26.217-.094.45-.187.678-.286.85-.38,1.351-.628,1.843-.9.211-.118.422-.235.629-.359a15.276,15.276,0,0,0,1.49-.967c.405-.3.573-.431.751-.569.15-.132.318-.264.479-.4s.3-.284.463-.422a5.075,5.075,0,0,0,.43-.425c.548-.576.671-.722.782-.864a2.89,2.89,0,0,0,.353-.457c.212-.3.421-.6.606-.9a8.35,8.35,0,0,0,.969-2.224,8.487,8.487,0,0,1-.285.847c.108-.28.2-.562.276-.842.05-.228.091-.38.108-.519a3.96,3.96,0,0,0,.107-.916,4.039,4.039,0,0,0-.036-.884,7.139,7.139,0,0,0-.236-1.107,4.837,4.837,0,0,0-.222-.592,3.422,3.422,0,0,0-.3-.567,3.475,3.475,0,0,0-.269-.448,8.087,8.087,0,0,0-.808-.936,3.551,3.551,0,0,0-.611-.55,10.444,10.444,0,0,0-2.379-1.411,13.1,13.1,0,0,0-1.278-.466,4.21,4.21,0,0,1-2.039-1.186,2.427,2.427,0,0,1-.628-1.838l.061-.629a3.027,3.027,0,0,1,.323-1.063,2.248,2.248,0,0,1,.3-.514,6.873,6.873,0,0,1,.622-.727,10.1,10.1,0,0,1,1.432-1.073c.217-.129.456-.252.689-.361a8.776,8.776,0,0,1,1.347-.512c.388-.113.628-.163.867-.214.366-.073.588-.1.81-.137l40.506-4.673Zm-111.721,35.469a2.867,2.867,0,0,0,2.615-1.235l5.182-10.57a36.329,36.329,0,0,0,14.71-3.448c11.075-5.229,15.615-14.491,10.151-20.689s-18.873-7-29.948-1.767-15.6,14.484-10.134,20.689c2.462,2.793,6.536,4.489,11.282,5.03l-5.157,10.519a.856.856,0,0,0,.105.992,1.705,1.705,0,0,0,1.192.48" transform="translate(-2167.456 1665.663)"/></g><g transform="translate(491.372 3394.998)"><path class="c" d="M2278.005-1626.865c5.465,6.2.924,15.46-10.151,20.689a36.329,36.329,0,0,1-14.71,3.448l.694-1.416a.851.851,0,0,0-.1-.988,1.242,1.242,0,0,0-.45-.313,29.436,29.436,0,0,0,12.741-2.809c4.519-2.133,7.691-5.079,9.189-8.135s1.313-6.2-.915-8.727-6.07-3.952-10.492-4.214a29.244,29.244,0,0,0-13.918,2.773c-4.508,2.127-7.68,5.074-9.178,8.13a7.534,7.534,0,0,0,.92,8.733c2.141,2.43,5.776,3.836,9.987,4.172a2.557,2.557,0,0,0-1.7,1.153l-.714,1.455c-4.746-.542-8.819-2.237-11.282-5.03-5.47-6.205-.93-15.466,10.134-20.689S2272.536-1633.071,2278.005-1626.865Z" transform="translate(-2235.605 1632.09)"/></g><g transform="translate(495.507 3397.715)"><path class="b" d="M2274.017-1617.175c-1.5,3.056-4.67,6-9.189,8.135a29.436,29.436,0,0,1-12.741,2.809,2.2,2.2,0,0,0-.737-.163,3.174,3.174,0,0,0-.928.087c-4.211-.336-7.846-1.742-9.987-4.172a7.534,7.534,0,0,1-.92-8.733c1.5-3.056,4.67-6,9.178-8.13a29.244,29.244,0,0,1,13.918-2.773c4.423.262,8.261,1.681,10.492,4.214S2275.516-1620.232,2274.017-1617.175Z" transform="translate(-2238.544 1630.159)"/></g><g transform="translate(326.368 3499.816)"><path class="c" d="M2144.183-1552.958c.995,1.129.177,2.813-1.849,3.77l-14.881,7.025c-2.026.957-4.449.8-5.444-.326l-3.249-3.687a1.908,1.908,0,0,1,.29-2.669,5,5,0,0,1,1.546-1.095l14.882-7.025a6.7,6.7,0,0,1,2.139-.6,3.925,3.925,0,0,1,3.315.919Zm-18.494,8.687,14.749-6.962-3.194-3.623-14.749,6.962,3.194,3.623" transform="translate(-2118.335 1557.595)"/></g><g transform="translate(449.2 3465.786)"><path class="g" d="M2310.788-1581.781l8.328,32.294-105.155,12.162-8.329-32.294Z" transform="translate(-2205.633 1581.781)"/></g><g transform="translate(554.354 3400.697)"><path class="i" d="M2338.847-1628.04l8.328,32.294-58.479,65.089-8.328-32.294Z" transform="translate(-2280.367 1628.04)"/></g><g transform="translate(238.874 3502.27)"><path class="e" d="M2102.822-1502.913l8.329,32.294-46.67-52.938-8.328-32.294Z" transform="translate(-2056.152 1555.851)"/></g><g transform="translate(390.71 3477.947)"><path class="d" d="M2222.553-1573.137l8.328,32.294-58.49,65.094-8.328-32.294Z" transform="translate(-2164.063 1573.137)"/></g><g transform="translate(285.543 3543.041)"><path class="j" d="M2194.487-1526.875l8.328,32.294-105.166,12.167-8.329-32.294Z" transform="translate(-2089.321 1526.875)"/></g></g></svg>